<svg xmlns="http://www.w3.org/2000/svg" fill="#ffffff" xmlns:xlink="http://www.w3.org/1999/xlink" version="1.1" x="0px" y="0px" viewBox="0 0 68 85" enable-background="new 0 0 68 68" xml:space="preserve"><g><path d="M39.6,13.3c-0.7-0.2-1.3-0.3-2-0.4l-0.1,0.7c0.6,0.1,1.3,0.2,1.9,0.4L39.6,13.3z"/><path d="M31.6,13.5l-0.1-0.7c-0.7,0.1-1.3,0.2-2,0.3l0.1,0.7C30.3,13.6,31,13.5,31.6,13.5z"/><path d="M25.9,14.8c0.6-0.2,1.3-0.4,1.9-0.6l-0.2-0.7c-0.6,0.2-1.3,0.4-1.9,0.6L25.9,14.8z"/><path d="M35.6,13.4l0-0.7c-1.1-0.1-1.9,0-2,0l0,0.8C33.7,13.4,34.5,13.3,35.6,13.4z"/><path d="M43.5,14.5c-0.6-0.3-1.3-0.5-1.9-0.7l-0.2,0.7c0.6,0.2,1.2,0.4,1.8,0.7L43.5,14.5z"/><path d="M10.1,41.7l-0.7,0.1c0.1,0.7,0.3,1.3,0.4,2l0.7-0.2C10.4,42.9,10.3,42.3,10.1,41.7z"/><path d="M16.1,53.9c-0.4-0.5-0.9-1-1.3-1.5l-0.6,0.5c0.4,0.5,0.9,1.1,1.3,1.6L16.1,53.9z"/><path d="M12.7,49.1L12,49.4c0.3,0.6,0.7,1.2,1,1.7l0.6-0.4C13.4,50.2,13,49.6,12.7,49.1z"/><path d="M17.5,55.3L17,55.8c0.5,0.5,1,0.9,1.5,1.3l0.5-0.6C18.5,56.1,18,55.7,17.5,55.3z"/><path d="M11.8,47.3c-0.3-0.6-0.5-1.2-0.7-1.8l-0.7,0.2c0.2,0.6,0.5,1.3,0.7,1.9L11.8,47.3z"/><path d="M50.3,56.4c0.5-0.4,1-0.9,1.5-1.4l-0.5-0.5c-0.5,0.5-0.9,0.9-1.4,1.3L50.3,56.4z"/><path d="M55.5,50.2c0.3-0.6,0.7-1.2,1-1.8l-0.7-0.3c-0.3,0.6-0.6,1.2-0.9,1.7L55.5,50.2z"/><path d="M57.7,42.5l0.7,0.2c0.1-0.7,0.2-1.3,0.3-2L58,40.5C57.9,41.2,57.8,41.8,57.7,42.5z"/><path d="M53.2,53.5c0.4-0.5,0.8-1.1,1.2-1.6l-0.6-0.4C53.4,52,53,52.5,52.6,53L53.2,53.5z"/><path d="M56.6,46.3l0.7,0.3c0.2-0.6,0.5-1.3,0.7-1.9l-0.7-0.2C57,45,56.8,45.6,56.6,46.3z"/><path d="M34,61.7l0,0.8c0.7,0,1.4,0,2-0.1L36,61.7C35.4,61.7,34.7,61.7,34,61.7z"/><path d="M38,61.4l0.1,0.7c0.7-0.1,1.3-0.2,2-0.4L39.9,61C39.3,61.2,38.6,61.3,38,61.4z"/><path d="M30,62.2c0.7,0.1,1.3,0.2,2,0.2l0.1-0.7c-0.6-0.1-1.3-0.1-2-0.2L30,62.2z"/><path d="M14.5,23.2l-0.6-0.4c-0.4,0.5-0.8,1.1-1.1,1.7l0.6,0.4C13.7,24.3,14.1,23.7,14.5,23.2z"/><path d="M12.4,26.6l-0.7-0.3c-0.3,0.6-0.6,1.2-0.8,1.8l0.7,0.3C11.9,27.7,12.1,27.1,12.4,26.6z"/><path d="M56.7,27.3c-0.3-0.6-0.6-1.2-0.9-1.8l-0.7,0.4c0.3,0.6,0.6,1.2,0.9,1.8L56.7,27.3z"/><path d="M54.8,23.7c-0.4-0.6-0.8-1.1-1.2-1.6L53,22.6c0.4,0.5,0.8,1,1.2,1.6L54.8,23.7z"/><path d="M57.7,31.2l0.4-0.1c-0.2-0.7-0.4-1.3-0.6-1.9l-0.7,0.3c0.2,0.5,0.3,1,0.5,1.5c-0.1-0.1-0.2-0.1-0.3-0.2   c-2.4-1.4-5-2.1-7.7-2.3c1.2-2.4,1.9-5.1,1.9-8c0.2,0.2,0.4,0.4,0.6,0.6l0.5-0.5c-0.4-0.4-0.8-0.8-1.2-1.2c-0.4-6-4-11.3-9.5-14   c-0.2-0.1-0.5,0-0.7,0.2c-0.1,0.2-0.1,0.5,0.1,0.7c2.7,2.2,4.4,5.5,4.3,9.2c0,0,0,0-0.1,0L45,16c0.1,0.1,0.2,0.1,0.4,0.2   C44.8,22,39.9,26.6,34,26.6c-5.9,0-10.8-4.6-11.4-10.4c0.5-0.3,0.9-0.5,1.4-0.7l-0.3-0.7c-0.4,0.2-0.8,0.4-1.2,0.6   c-0.1-3.8,1.6-7.1,4.3-9.2C27.1,6,27.2,5.7,27,5.5c-0.1-0.2-0.4-0.3-0.7-0.2c-5.7,2.8-9.3,8.4-9.5,14.7l-0.3-0.4   c-0.5,0.5-1,1-1.4,1.5l0.6,0.5c0.4-0.4,0.8-0.8,1.2-1.2c0,2.9,0.7,5.7,1.9,8c-2.7,0.1-5.3,0.9-7.7,2.3c-0.1,0.1-0.2,0.1-0.3,0.2   c0.1-0.3,0.1-0.5,0.2-0.8L10.2,30c-0.2,0.5-0.3,1.1-0.4,1.6C4.9,35,2.1,40.6,2.5,46.7c0,0.3,0.2,0.5,0.5,0.5c0.3,0,0.5-0.2,0.5-0.4   c0.5-3.5,2.5-6.5,5.6-8.2c0,0.4,0,0.9,0.1,1.3l0.7-0.1c0-0.5-0.1-1-0.1-1.6c1.6-0.8,3.3-1.2,5-1.2c4.1,0,7.9,2.2,9.9,5.7   c3.1,5.3,1.4,12-3.7,15.3c-0.1-0.1-0.3-0.2-0.4-0.2l-0.4,0.6c0,0,0.1,0,0.1,0.1c-3,1.6-6.6,1.8-9.7,0.6c-0.2-0.1-0.5,0-0.6,0.2   c-0.1,0.2,0,0.5,0.2,0.7c4.7,3.1,10.8,3.8,16.3,1.5c0.5,0.2,1.1,0.3,1.6,0.5l0.2-0.7c-0.3-0.1-0.5-0.2-0.8-0.2c2.8-1.4,5-3.5,6.6-6   c5,7.8,15.8,10.4,23.9,5c0.5-0.3,0.1-1.1-0.5-0.9c-3.1,1.2-6.7,1-9.7-0.6c0.4-0.2,0.7-0.5,1.1-0.7l-0.4-0.6   c-0.4,0.3-0.9,0.6-1.3,0.9c-5.1-3.3-6.8-10-3.7-15.3c2-3.5,5.8-5.7,9.9-5.7c1.7,0,3.4,0.4,5,1.2c0,0.2,0,0.3,0,0.5l0.8,0   c0,0,0-0.1,0-0.1c3,1.8,5,4.7,5.5,8.2c0,0.3,0.2,0.4,0.5,0.4c0.3,0,0.5-0.2,0.5-0.5C65.9,40.4,62.9,34.6,57.7,31.2z M34,41.1   c-2,0-3.6-1.6-3.6-3.6c0-2,1.6-3.5,3.6-3.5c2,0,3.6,1.6,3.6,3.5C37.6,39.5,36,41.1,34,41.1z"/></g></svg>