<svg xmlns="http://www.w3.org/2000/svg" fill="#ffffff" version="1.1" viewBox="-5.0 -10.0 110.0 135.0">
 <path d="m84.375 65.82v18.555c0 2.4883-0.98828 4.8711-2.7461 6.6289-1.7578 1.7578-4.1445 2.7461-6.6289 2.7461h-12.5v-18.75c0-5.1797-4.1953-9.375-9.375-9.375h-6.25c-5.1797 0-9.375 4.1953-9.375 9.375v18.75h-12.5c-2.4883 0-4.8711-0.98828-6.6289-2.7461-1.7578-1.7578-2.7461-4.1406-2.7461-6.6289v-41.82l-4.2305 3.5781c-1.3203 1.1172-3.293 0.95313-4.4062-0.36328-1.1133-1.3164-0.94922-3.293 0.36719-4.4023l36.586-30.961c3.5-2.9609 8.6172-2.9609 12.113 0l5.1094 4.3203c-0.46484 1.0195-0.89844 2.0781-1.3086 3.1836-0.90234-0.375-1.8711-0.61719-2.875-0.69531-3.25-0.25391-6.3984 1.1992-8.3164 3.8398 0 0-1.9023 2.7422-2.5977 4.3594-1.8984 4.4375-2.3164 10.312-2.3164 15.211 0 15.523 12.602 28.125 28.125 28.125 4.4883 0 8.7305-1.0547 12.5-2.9297zm-28.125 27.93h-12.5v-18.75c0-1.7266 1.3984-3.125 3.125-3.125h6.25c1.7227 0 3.125 1.3984 3.125 3.125zm23.414-84.746s1.3594 11.082 10.078 20.07c2.7461 2.832 4.0078 7.3242 4.0078 11.551 0 12.07-9.8008 21.875-21.875 21.875s-21.875-9.8047-21.875-21.875c0-4.1016 0.22266-9.0352 1.8164-12.75 0.5-1.1758 1.9062-3.1484 1.9062-3.1484 0.63672-0.87891 1.6875-1.3633 2.7695-1.2812 1.082 0.085938 2.0469 0.73047 2.543 1.6992 0.92578 1.8164 2.4141 3.8164 4.0312 5.6289 1.582-11.441 6.0781-19.969 11.688-23.949 0.89844-0.63672 2.0703-0.75391 3.0742-0.30469 1.0078 0.44531 1.707 1.3906 1.8359 2.4844z"  fill-rule="evenodd"/>
<text x="0.0" y="117.5" font-size="5.0" font-weight="bold" font-family="Arbeit Regular, Helvetica, Arial-Unicode, Arial, Sans-serif" fill="#ffffff"></text><text x="0.0" y="122.5" font-size="5.0" font-weight="bold" font-family="Arbeit Regular, Helvetica, Arial-Unicode, Arial, Sans-serif"  fill="#FFFFFF"></text></svg>