<svg xmlns="http://www.w3.org/2000/svg" fill="#ffffff"  version="1.1" viewBox="-5.0 -10.0 110.0 135.0">
 <path d="m15.625 50.82v-8.2656l-4.2305 3.5781c-1.3203 1.1172-3.293 0.95313-4.4062-0.36328-1.1133-1.3164-0.94922-3.293 0.36719-4.4023l36.586-30.961c3.5-2.9609 8.6172-2.9609 12.113 0l36.59 30.961c1.3164 1.1094 1.4805 3.0859 0.36719 4.4023-1.1133 1.3164-3.0898 1.4805-4.4062 0.36328l-4.2305-3.5781v7.1055c-1.6484-0.45312-2.9141-0.60156-3.418-0.22266l-5.957 4.4688-1.3555-1.0156c-6.6055-4.9531-15.684-4.9531-22.289 0l-1.3555 1.0156-1.3555-1.0156c-6.6055-4.9531-15.684-4.9531-22.289 0l-1.3555 1.0156-5.207-3.9062c-0.67188-0.5-2.2188-0.054688-4.168 0.82031zm51.09-39.582c0.43359-0.82031 0.98828-1.5742 1.6562-2.2422 1.7578-1.7578 4.1406-2.7461 6.6289-2.7461h3.125c2.4844 0 4.8711 0.98828 6.6289 2.7461 1.7578 1.7578 2.7461 4.1406 2.7461 6.6289v13.199zm-60.465 57.512v-12.5c0 1.7266-0.97266-3.125 3.1367-3.125h1.0312c2.0273 0 4 0.66016 5.625 1.875l5.3125 3.9844c2.1562 1.6172 5.1289 1.6172 7.2891 0l1.4609-1.0938c4.3789-3.2891 10.406-3.2891 14.789 0l1.4609 1.0938c2.1562 1.6172 5.1289 1.6172 7.2891 0l1.4609-1.0938c4.3789-3.2891 10.406-3.2891 14.789 0l1.4609 1.0938c2.1562 1.6172 5.1289 1.6172 7.2891 0l6.0625-4.5469c1.1367-0.85156 2.5195-1.3125 3.9375-1.3125h1.9492c4.082 0 3.1562 3.125 3.1562 3.125v12.5h-4.168c-2.0273 0-4 0.66016-5.625 1.875l-5.3125 3.9844c-2.1602 1.6172-5.1328 1.6172-7.2891 0l-1.4609-1.0938c-4.3828-3.2891-10.41-3.2891-14.789 0l-1.4609 1.0938c-2.1602 1.6172-5.1328 1.6172-7.2891 0l-1.4609-1.0938c-4.3828-3.2891-10.41-3.2891-14.789 0l-1.4609 1.0938c-2.1602 1.6172-5.1328 1.6172-7.2891 0l-5.3125-3.9844c-1.625-1.2148-3.5977-1.875-5.625-1.875zm87.5 6.25v9.375c0 2.4883-0.98828 4.8711-2.7461 6.6289-1.7578 1.7578-4.1445 2.7461-6.6289 2.7461h-68.75c-2.4883 0-4.8711-0.98828-6.6289-2.7461-1.7578-1.7578-2.7461-4.1406-2.7461-6.6289v-9.375h4.168c0.67578 0 1.332 0.21875 1.875 0.625l5.3125 3.9844c4.3789 3.2891 10.406 3.2891 14.789 0l1.4609-1.0938c2.1562-1.6172 5.1289-1.6172 7.2891 0l1.4609 1.0938c4.3789 3.2891 10.406 3.2891 14.789 0l1.4609-1.0938c2.1562-1.6172 5.1289-1.6172 7.2891 0l1.4609 1.0938c4.3789 3.2891 10.406 3.2891 14.789 0l5.3125-3.9844c0.54297-0.40625 1.1992-0.625 1.875-0.625z" fill-rule="evenodd"/>
</svg>