<svg xmlns="http://www.w3.org/2000/svg" fill="#ffffff" xmlns:xlink="http://www.w3.org/1999/xlink" version="1.1" x="0px" y="0px" viewBox="0 0 512 640" style="enable-background:new 0 0 512 512;" xml:space="preserve"><path d="M460.2,456.5l-70.4-122l0,0c-4.4-7.4-11.4-11.5-20-11.5c-4.3,0-8.2,1-11.6,3l0,0c-3.5,2.1-6.2,4.7-8.4,8.5l-70.4,122v0  c-8.8,15.2,1.8,34.6,20,34.6h140.9c4.3,0,8.2-1,11.6-3l0,0C462.5,481.7,466.8,467.8,460.2,456.5L460.2,456.5z M311,377.8l28.5-49.4  c3.2-5.5,7.6-9.9,12.8-12.9v0c4-2.3,8.5-3.8,13.3-4.4v-62c0-60.2-49.3-109.5-109.5-109.5c-60.2,0-109.5,49.3-109.5,109.5v128.6H311z   M275.1,440l28.9-50.1H132.6c-12.1,0-21.9,9.9-21.9,21.9V440H275.1z M365.1,454.8v8.8h9.5v-8.8H365.1z M353.1,464.2v-9.9  c0-6.3,5.3-11.4,11.6-11.4H375c6.3,0,11.7,5.1,11.7,11.4v9.9c0,6.3-5.3,11.4-11.7,11.4h-10.2C358.4,475.6,353.1,470.5,353.1,464.2  L353.1,464.2z M375.4,382.8 M375.4,382.8C375.4,382.8,375.4,382.8,375.4,382.8L375.4,382.8z M364.2,382.8l4.9,38.7h1.6l4.8-38.7  v-19.2h-11.2V382.8z M357.2,423.5l-4.9-39.3c-0.3-2.8-0.1-17.2-0.1-21.1c0-6.3,5.3-11.5,11.6-11.5h12c6.3,0,11.7,5.1,11.7,11.5  c0,3.4,0.2,18.9-0.1,21.1l-4.8,39.3c-0.7,5.8-5.7,10.1-11.5,10.1c-3.8,0-6.6-0.1-9.8-2.8C359,428.9,357.6,426.4,357.2,423.5  L357.2,423.5z M204.6,201.4c14.5,0,26.3,11.8,26.3,26.4v96c0,23.2-28.3,35.3-45,18.6c-4.8-4.8-7.7-11.3-7.7-18.6v-96  C178.2,213.2,190.1,201.4,204.6,201.4L204.6,201.4z M204.6,213.4c-7.9,0-14.4,6.5-14.4,14.4v96c0,12.6,15.4,19.2,24.5,10.1  c2.6-2.6,4.2-6.2,4.2-10.1v-96C218.9,219.9,212.5,213.4,204.6,213.4L204.6,213.4z M256,21c9.9,0,18.1,8.1,18.1,18.1v45.2  c0,16-19.4,24.2-30.9,12.8c-3.3-3.3-5.3-7.8-5.3-12.8V39.1C237.9,29.1,246.1,21,256,21L256,21z M413.9,86.4  c3.5,3.5,5.3,8.1,5.3,12.8h0c0,4.6-1.8,9.3-5.3,12.8l-31.9,31.9c-11.3,11.3-30.8,3.4-30.8-12.8c0-4.6,1.8-9.3,5.3-12.8l31.9-31.9  C395.4,79.4,406.9,79.4,413.9,86.4L413.9,86.4z M479.3,244.3c0,9.9-8.1,18.1-18.1,18.1H416c-16,0-24.2-19.4-12.8-30.8  c3.3-3.3,7.8-5.3,12.8-5.3h45.2C471.2,226.3,479.3,234.4,479.3,244.3L479.3,244.3z M98.1,86.4c7.1-7.1,18.5-7.1,25.6,0l31.9,31.9  c11.3,11.3,3.4,30.8-12.8,30.8c-4.6,0-9.3-1.8-12.8-5.3l-32-31.9C91.1,104.9,91.1,93.4,98.1,86.4L98.1,86.4z M32.7,244.3  c0-9.9,8.1-18.1,18.1-18.1H96c15.9,0,24.2,19.4,12.8,30.8c-3.3,3.3-7.8,5.3-12.8,5.3H50.8C40.8,262.4,32.7,254.3,32.7,244.3  L32.7,244.3z"/></svg>