<svg xmlns="http://www.w3.org/2000/svg" xmlns:xlink="http://www.w3.org/1999/xlink" version="1.1" x="0px" y="0px" viewBox="0 0 24 30" enable-background="new 0 0 24 24" xml:space="preserve"><title>patient</title><desc>Created with Sketch.</desc><path d="M8.228,6.003c-0.646,3.99,1.106,6.786,3.748,6.812c2.643,0.026,4.433-2.738,3.837-6.741  C15.147,1.603,8.947,1.57,8.228,6.003z M9.215,6.163c0.536-3.307,5.111-3.283,5.609,0.058c0.514,3.451-0.887,5.613-2.839,5.594  C10.032,11.796,8.657,9.604,9.215,6.163z"/><path d="M11.074,12.05c-0.148,0.981-0.436,1.7-0.962,2.087c-0.485,0.356-1.229,0.563-2.361,0.739  c-0.184,0.028-0.376,0.057-0.603,0.086c-0.11,0.016-0.688,0.091-0.841,0.111c-0.295,0.041-0.512,0.074-0.692,0.109  c-0.768,0.151-1.118,0.568-1.347,1.33c-0.057,0.191-0.145,0.98-0.235,2.094L4.02,18.766c-0.041,0.517-0.081,1.068-0.117,1.618  c-0.022,0.329-0.038,0.586-0.047,0.731c-0.017,0.275-0.254,0.485-0.529,0.469c-0.276-0.017-0.486-0.254-0.469-0.529  c0.009-0.147,0.025-0.405,0.047-0.738c0.037-0.553,0.077-1.108,0.118-1.629l0.013-0.16c0.099-1.223,0.186-2.008,0.273-2.301  c0.325-1.082,0.918-1.789,2.113-2.023c0.202-0.04,0.436-0.076,0.748-0.119c0.157-0.021,0.736-0.098,0.843-0.111  c0.221-0.03,0.407-0.057,0.583-0.084c0.975-0.15,1.611-0.329,1.922-0.557c0.251-0.186,0.454-0.691,0.565-1.431  c0.042-0.273,0.296-0.461,0.569-0.42C10.927,11.522,11.115,11.777,11.074,12.05z"/><path d="M13.887,11.895c0.123,0.74,0.328,1.275,0.549,1.438c0.311,0.228,0.947,0.406,1.92,0.557  c0.176,0.027,0.362,0.054,0.584,0.084c0.107,0.014,0.688,0.09,0.844,0.111c0.313,0.043,0.547,0.08,0.75,0.119  c1.194,0.234,1.789,0.942,2.112,2.023c0.088,0.291,0.183,1.078,0.296,2.303l0.015,0.15c0.048,0.521,0.095,1.077,0.138,1.631  c0.027,0.332,0.047,0.59,0.057,0.738c0.021,0.275-0.187,0.515-0.462,0.535c-0.275,0.02-0.515-0.188-0.535-0.463  c-0.011-0.146-0.03-0.401-0.056-0.731c-0.044-0.55-0.09-1.103-0.138-1.618l-0.014-0.149c-0.104-1.12-0.2-1.913-0.259-2.108  c-0.229-0.762-0.578-1.179-1.348-1.329c-0.18-0.035-0.396-0.069-0.691-0.11c-0.154-0.021-0.732-0.096-0.842-0.111  c-0.229-0.03-0.421-0.058-0.604-0.086c-1.131-0.176-1.874-0.384-2.358-0.739c-0.501-0.369-0.78-1.095-0.943-2.081  c-0.045-0.272,0.14-0.53,0.412-0.575S13.842,11.622,13.887,11.895z"/><path d="M9.661,14.222c1.422,0.444,3.257,0.444,4.639-0.001c0.263-0.086,0.407-0.367,0.322-0.63  s-0.366-0.407-0.63-0.322c-1.184,0.382-2.807,0.382-4.033-0.001c-0.264-0.083-0.544,0.064-0.626,0.328S9.397,14.139,9.661,14.222z"/><path d="M8.94,4.23c0.113-0.165,0.314-0.247,0.511-0.207c1.613,0.324,3.187,0.605,5.834,1.056  c0.196,0.034,0.354,0.181,0.401,0.375c0.177,0.723,0.224,1.172,0.224,2.029c0,0.311-0.282,0.547-0.588,0.492  c-0.934-0.167-2.051-0.375-3.507-0.653l-0.259-0.049C11,7.166,9.035,6.789,8.642,6.714C8.385,6.665,8.209,6.425,8.239,6.165  C8.341,5.29,8.46,4.93,8.94,4.23z M9.298,5.821c0.735,0.141,2.014,0.386,2.446,0.468l0.259,0.049  c1.152,0.219,2.092,0.396,2.895,0.542c-0.015-0.316-0.048-0.574-0.11-0.872c-2.284-0.39-3.755-0.653-5.201-0.939  C9.429,5.328,9.353,5.526,9.298,5.821z"/><path d="M8.764,8.882c1.483-0.384,3.399-0.871,4.911-1.245c0.516-0.127,0.503-0.865-0.017-0.975  c-0.489-0.103-1.146-0.229-2.418-0.469l-0.043-0.008C9.674,5.898,9.307,5.829,8.835,5.733C8.592,5.684,8.35,5.82,8.266,6.053  C8.088,6.546,8.031,7.905,8.149,8.496C8.205,8.777,8.486,8.954,8.764,8.882z M9.13,6.811c0.363,0.07,0.867,0.166,1.882,0.357  l0.043,0.008c0.067,0.013,0.133,0.025,0.197,0.038C10.515,7.4,9.771,7.59,9.088,7.766C9.083,7.455,9.099,7.094,9.13,6.811z"/><text x="0" y="39" fill="#000000" font-size="5px" font-weight="bold" font-family="'Helvetica Neue', Helvetica, Arial-Unicode, Arial, Sans-serif">Created by IcoLabs</text><text x="0" y="44" fill="#000000" font-size="5px" font-weight="bold" font-family="'Helvetica Neue', Helvetica, Arial-Unicode, Arial, Sans-serif">from the Noun Project</text></svg>